<?xml version="1.0" encoding="utf-8"?>
<!-- Generator: Adobe Illustrator 16.0.0, SVG Export Plug-In . SVG Version: 6.00 Build 0)  -->
<!DOCTYPE svg PUBLIC "-//W3C//DTD SVG 1.1//EN" "http://www.w3.org/Graphics/SVG/1.1/DTD/svg11.dtd">
<svg version="1.1" xmlns="http://www.w3.org/2000/svg" xmlns:xlink="http://www.w3.org/1999/xlink" x="0px" y="0px" width="350px"
	 height="518px" viewBox="0 0 350 518" enable-background="new 0 0 350 518" xml:space="preserve">
<g id="Layer_2">
	<polyline fill="none" stroke="#808080" points="174.885,38.114 174.885,51.296 106.738,51.296 106.738,64.796 	"/>
	<polyline fill="none" stroke="#808080" points="174.885,51.296 243.031,51.296 243.031,64.796 	"/>
	<line fill="none" stroke="#666666" x1="106.738" y1="93.947" x2="106.738" y2="120.72"/>
	<line fill="none" stroke="#666666" x1="106.738" y1="106.962" x2="38.591" y2="106.962"/>
	<line fill="none" stroke="#666666" x1="38.591" y1="106.962" x2="38.591" y2="120.72"/>
	<line fill="none" stroke="#666666" x1="243.031" y1="93.947" x2="243.031" y2="120.72"/>
	<line fill="none" stroke="#666666" x1="243.031" y1="106.962" x2="174.885" y2="106.962"/>
	<line fill="none" stroke="#666666" x1="174.885" y1="106.962" x2="174.885" y2="120.72"/>
	<line fill="none" stroke="#666666" x1="243.031" y1="106.962" x2="311.18" y2="106.962"/>
	<line fill="none" stroke="#666666" x1="311.18" y1="106.962" x2="311.18" y2="120.72"/>
	<circle opacity="0.25" fill="#22B573" stroke="#009245" cx="175.428" cy="339.7" r="158.569"/>
	<circle opacity="0.25" fill="#22B573" stroke="#009245" cx="96.622" cy="339.7" r="78.737"/>
	<circle opacity="0.25" fill="#22B573" stroke="#009245" cx="254.69" cy="339.7" r="78.737"/>
	<path fill="#29ABE2" stroke="#0071BC" stroke-width="0.75" d="M96.622,339.702c0,21.676-17.571,39.244-39.247,39.244
		c-21.674,0-39.246-17.568-39.246-39.244c0-21.677,17.572-39.248,39.246-39.248C79.051,300.454,96.622,318.025,96.622,339.702z"/>
	<path fill="#29ABE2" stroke="#0071BC" stroke-width="0.75" d="M175.115,339.702c0,21.676-17.572,39.244-39.246,39.244
		c-21.675,0-39.247-17.568-39.247-39.244c0-21.677,17.572-39.248,39.247-39.248C157.543,300.454,175.115,318.025,175.115,339.702z"
		/>
	<path fill="#29ABE2" stroke="#0071BC" stroke-width="0.75" d="M254.426,360.922c0,19.993-16.209,36.199-36.2,36.199
		c-19.995,0-36.202-16.206-36.202-36.199c0-19.996,16.207-36.204,36.202-36.204C238.217,324.718,254.426,340.926,254.426,360.922z"
		/>
	<path fill="#29ABE2" stroke="#0071BC" stroke-width="0.75" d="M327.054,360.922c0,19.993-16.206,36.199-36.2,36.199
		c-19.992,0-36.202-16.206-36.202-36.199c0-19.996,16.21-36.204,36.202-36.204C310.848,324.718,327.054,340.926,327.054,360.922z"/>
	<circle fill="#29ABE2" stroke="#0071BC" stroke-width="0.75" cx="254.651" cy="297.276" r="36.202"/>
</g>
<g id="Layer_1">
	<g>
		<text transform="matrix(1 0 0 1 30.833 141.7959)" fill="#1A1A1A" font-family="'MyriadPro-Regular'" font-size="22">D</text>
	</g>
	<g opacity="0.5">
		<text transform="matrix(1 0 0 1 49.833 347.2959)" font-family="'MyriadPro-Regular'" font-size="22">D</text>
	</g>
	<g>
		<text transform="matrix(1 0 0 1 100.5283 141.7959)" fill="#1A1A1A" font-family="'MyriadPro-Regular'" font-size="22">E</text>
	</g>
	<g opacity="0.5">
		<text transform="matrix(1 0 0 1 130.5283 347.2959)" font-family="'MyriadPro-Regular'" font-size="22">E</text>
	</g>
	<g>
		<text transform="matrix(1 0 0 1 100.6465 86.2959)" fill="#1A1A1A" font-family="'MyriadPro-Regular'" font-size="22">B</text>
	</g>
	<g opacity="0.5">
		<text transform="matrix(1 0 0 1 89.6465 409.2959)" font-family="'MyriadPro-Regular'" font-size="22">B</text>
	</g>
	<g>
		<text transform="matrix(1 0 0 1 169.7344 141.7959)" fill="#1A1A1A" font-family="'MyriadPro-Regular'" font-size="22">F</text>
	</g>
	<g opacity="0.5">
		<text transform="matrix(1 0 0 1 249.7344 303.7959)" font-family="'MyriadPro-Regular'" font-size="22">F</text>
	</g>
	<g>
		<text transform="matrix(1 0 0 1 235.2949 141.7959)" fill="#1A1A1A" font-family="'MyriadPro-Regular'" font-size="22">G</text>
	</g>
	<g opacity="0.5">
		<text transform="matrix(1 0 0 1 210.2949 367.7959)" font-family="'MyriadPro-Regular'" font-size="22">G</text>
	</g>
	<g>
		<text transform="matrix(1 0 0 1 303.666 141.7959)" fill="#1A1A1A" font-family="'MyriadPro-Regular'" font-size="22">H</text>
	</g>
	<g opacity="0.5">
		<text transform="matrix(1 0 0 1 284.666 367.7959)" font-family="'MyriadPro-Regular'" font-size="22">H</text>
	</g>
	<g>
		<text transform="matrix(1 0 0 1 235.6348 86.2959)" fill="#1A1A1A" font-family="'MyriadPro-Regular'" font-size="22">C</text>
	</g>
	<g opacity="0.5">
		<text transform="matrix(1 0 0 1 249.6348 409.2959)" font-family="'MyriadPro-Regular'" font-size="22">C</text>
	</g>
	<text transform="matrix(1 0 0 1 168.0278 32.9629)" fill="#1A1A1A" font-family="'MyriadPro-Regular'" font-size="22">A</text>
	<text transform="matrix(1 0 0 1 167.0278 207.9629)" opacity="0.5" font-family="'MyriadPro-Regular'" font-size="22">A</text>
</g>
</svg>
